<svg width="300" height="43" viewBox="0 0 300 43" fill="none" xmlns="http://www.w3.org/2000/svg">
<g opacity="0.4">
<path opacity="0.3" d="M31.5252 5.60501H31.3781C30.0641 3.78133 28.3126 2.31714 26.2846 1.34752C24.2567 0.377896 22.0174 -0.066248 19.7729 0.0559629C8.46249 0.0559629 0 9.45151 0 21.122C0 33.0708 8.18423 42.2369 19.7729 42.2369C20.3131 42.2369 20.8205 42.2369 21.4098 42.2369C25.9601 41.8604 29.9051 39.8141 31.4437 36.6878H31.5907V40.9605H43.3921V1.41465H31.5907L31.5252 5.60501ZM31.5252 21.9732C31.395 24.4889 30.3032 26.8582 28.4753 28.5916C26.6475 30.3251 24.2234 31.29 21.7043 31.2866H21.4098C18.8308 31.2095 16.3857 30.1204 14.6031 28.2552C12.8205 26.3899 11.8435 23.8985 11.8833 21.3186C11.8375 20.0126 12.053 18.7105 12.5167 17.4887C12.9805 16.267 13.6834 15.1498 14.5843 14.2031C15.4853 13.2565 16.5659 12.4993 17.7633 11.9757C18.9606 11.452 20.2505 11.1729 21.5572 11.1541C24.0936 11.1519 26.5361 12.1117 28.3922 13.8403C30.2484 15.5688 31.3798 17.9374 31.558 20.4675C31.558 20.713 31.558 20.942 31.558 21.1876C31.558 21.4331 31.5088 21.6458 31.4924 21.8749L31.5252 21.9732Z" fill="white"/>
<path opacity="0.3" d="M68.5019 31.1564C63.0185 31.1564 59.1066 26.8845 59.1066 21.1229C59.1066 15.3612 62.7731 11.1221 68.1418 11.0893C70.0041 10.997 71.8496 11.4801 73.4279 12.4728C75.0063 13.4655 76.2408 14.9191 76.9641 16.6376H88.913C87.9091 11.8824 85.2798 7.62574 81.477 4.59959C77.6741 1.57345 72.9354 -0.0328143 68.0763 0.0567776H67.8637C65.1236 0.0630734 62.412 0.612391 59.8854 1.67282C57.3588 2.73325 55.0673 4.28364 53.1435 6.23482C51.2197 8.18599 49.7016 10.4989 48.677 13.0403C47.6524 15.5816 47.1416 18.3014 47.1741 21.0413C47.1481 23.8043 47.6694 26.545 48.7078 29.1056C49.7462 31.6661 51.2811 33.9953 53.2242 35.9597C55.1673 37.9241 57.4802 39.4842 60.0293 40.5505C62.5783 41.6168 65.3132 42.1679 68.0763 42.1721C72.9033 42.2732 77.6178 40.7096 81.4274 37.7436C85.237 34.7776 87.9093 30.5906 88.9949 25.8863H77.0788C76.3333 27.5165 75.1199 28.8879 73.5926 29.8265C72.0653 30.765 70.2931 31.2278 68.5019 31.1564V31.1564Z" fill="white"/>
<path opacity="0.3" d="M159.574 0.0566406C154.026 0.147117 148.738 2.42492 144.86 6.39453C140.982 10.3641 138.829 15.7047 138.869 21.2538C138.864 26.7776 141.047 32.0782 144.939 35.998C148.831 39.9177 154.116 42.1374 159.64 42.172H159.787C168.102 42.172 175.288 37.1145 179.053 28.5212H166.973C166.187 29.6949 165.114 30.6485 163.857 31.2929C162.6 31.9373 161.199 32.2511 159.787 32.204H159.64C157.469 32.3018 155.34 31.5934 153.66 30.2155C151.98 28.8377 150.868 26.8877 150.539 24.74H180.198C180.392 23.7094 180.485 22.6621 180.477 21.6134C180.411 9.38639 171.376 0.0566406 159.574 0.0566406ZM150.67 16.7853C151.137 14.7989 152.281 13.0367 153.906 11.8029C155.531 10.5691 157.536 9.94013 159.574 10.0246C161.632 9.92166 163.661 10.5414 165.311 11.7757C166.961 13.0101 168.128 14.7821 168.61 16.7853H150.67Z" fill="white"/>
<path opacity="0.3" d="M204.096 16.7857C198.612 15.3616 196.697 14.2812 196.697 12.1533C196.697 10.6638 198.121 9.51827 200.102 9.51827H200.462C202.229 9.60011 203.735 10.3528 203.735 12.497H215.324C214.768 4.83668 208.777 0.155593 200.462 0.0410156H200.184C192.212 0.0410156 184.88 5.09818 184.88 12.9222C184.88 17.538 187.515 21.4502 197.483 24.511C203.376 26.3606 204.734 27.5063 204.734 29.6996C204.734 31.5656 202.672 32.7774 200.609 32.7774C200.076 32.8341 199.537 32.7848 199.023 32.6328C198.509 32.4807 198.03 32.2286 197.613 31.8911C197.196 31.5535 196.85 31.1374 196.595 30.6659C196.339 30.1944 196.179 29.6767 196.124 29.1433H184.388C185.24 37.1801 191.574 42.2379 200.462 42.2379C209.35 42.2379 216.535 37.0492 216.535 28.7997C216.535 23.0381 213.475 19.2736 204.096 16.7857Z" fill="white"/>
<path opacity="0.3" d="M239.123 16.7853C233.64 15.3613 231.725 14.2808 231.725 12.153C231.725 10.6635 233.149 9.51791 235.146 9.51791C237.143 9.51791 238.698 10.2374 238.763 12.5126H250.352C249.796 4.75409 243.805 0.0566406 235.211 0.0566406C227.24 0.0566406 219.923 5.11461 219.923 12.9386C219.923 17.5544 222.542 21.4666 232.51 24.5274C238.403 26.377 239.761 27.5227 239.761 29.716C239.761 31.582 237.699 32.7931 235.637 32.7931H234.966C234.001 32.7576 233.083 32.3726 232.381 31.7101C231.679 31.0476 231.242 30.1533 231.152 29.1925H219.481C220.316 37.0656 226.422 42.0743 235.031 42.2871H235.555C244.525 42.2871 251.628 37.0976 251.628 28.8481C251.628 23.0373 248.568 19.2733 239.123 16.7853Z" fill="white"/>
<path opacity="0.3" d="M115.38 31.1078C115.036 31.1078 114.693 31.1078 114.333 31.1078C108.866 31.1078 104.954 26.835 104.954 21.0734C104.954 15.3118 108.653 11.0399 114.055 11.0399C115.917 10.9476 117.762 11.4307 119.341 12.4234C120.919 13.4161 122.154 14.8705 122.877 16.589H134.826C133.812 11.7986 131.151 7.51527 127.304 4.48544C123.458 1.45561 118.671 -0.128507 113.776 0.00815779C111.035 0.0122931 108.322 0.559941 105.793 1.6194C103.265 2.67887 100.971 4.22921 99.0456 6.1806C97.1201 8.132 95.6007 10.4453 94.5751 12.9876C93.5495 15.53 93.0381 18.2507 93.0705 20.9919C93.0468 23.7556 93.57 26.4971 94.6103 29.0577C95.6505 31.6183 97.1871 33.9477 99.1315 35.9119C101.076 37.8761 103.39 39.4358 105.94 40.5019C108.49 41.568 111.225 42.1193 113.989 42.1235C114.447 42.1235 114.922 42.1235 115.38 42.1235C119.963 41.933 124.357 40.2401 127.883 37.3058C131.409 34.3715 133.872 30.3588 134.891 25.8864H122.91C122.24 27.3531 121.187 28.612 119.862 29.5309C118.537 30.4497 116.989 30.9945 115.38 31.1078Z" fill="white"/>
</g>
<path d="M159.574 0.0561523C154.026 0.146629 148.738 2.42443 144.86 6.39404C140.982 10.3636 138.829 15.7042 138.869 21.2533C138.864 26.7771 141.047 32.0778 144.939 35.9975C148.831 39.9172 154.116 42.1369 159.64 42.1715H159.787C161.518 42.1691 163.24 41.938 164.91 41.4842L161.899 31.9909C161.205 32.1413 160.497 32.2124 159.787 32.2035H159.64C157.469 32.3013 155.34 31.5929 153.66 30.2151C151.98 28.8372 150.868 26.8872 150.539 24.7395H180.198C180.392 23.7089 180.485 22.6616 180.477 21.613C180.411 9.3859 171.376 0.0561523 159.574 0.0561523ZM150.67 16.7848C151.137 14.7984 152.281 13.0362 153.906 11.8024C155.531 10.5686 157.536 9.93964 159.574 10.0241C161.632 9.92118 163.661 10.5409 165.311 11.7752C166.961 13.0096 168.128 14.7816 168.61 16.7848H150.67Z" fill="white"/>
<path d="M204.096 16.7857C198.612 15.3616 196.697 14.2812 196.697 12.1533C196.697 10.6638 198.121 9.51827 200.102 9.51827H200.462C200.879 9.52763 201.293 9.59916 201.689 9.73087L204.718 0.548526C203.321 0.231932 201.894 0.0617781 200.462 0.0410156H200.184C192.212 0.0410156 184.88 5.09818 184.88 12.9222C184.88 17.538 187.515 21.4502 197.483 24.511C203.376 26.3606 204.734 27.5063 204.734 29.6996C204.734 31.5656 202.672 32.7774 200.609 32.7774C200.076 32.8341 199.537 32.7848 199.023 32.6328C198.509 32.4807 198.03 32.2287 197.613 31.8911C197.196 31.5535 196.85 31.1374 196.595 30.6659C196.339 30.1944 196.179 29.6767 196.124 29.1433H184.388C185.24 37.1801 191.574 42.2379 200.462 42.2379C209.35 42.2379 216.535 37.0493 216.535 28.7997C216.535 23.0381 213.475 19.2736 204.096 16.7857Z" fill="white"/>
<path d="M239.124 16.7848C233.641 15.3608 231.726 14.2803 231.726 12.1525C231.726 10.663 233.15 9.51742 235.147 9.51742C237.144 9.51742 238.699 10.237 238.764 12.5121H250.353C249.796 4.7536 243.806 0.0561523 235.212 0.0561523C227.241 0.0561523 219.924 5.11412 219.924 12.9381C219.924 17.554 222.543 21.4661 232.511 24.5269C238.404 26.3766 239.762 27.5222 239.762 29.7155C239.762 31.5815 237.7 32.7926 235.638 32.7926H234.967C234.546 32.7487 234.133 32.6501 233.739 32.4985L230.465 41.6808C231.928 42.0422 233.427 42.2396 234.934 42.2698H235.458C244.427 42.2698 251.531 37.0812 251.531 28.8316C251.63 23.0372 248.569 19.2728 239.124 16.7848Z" fill="white"/>
<path d="M68.5019 31.1557C63.0185 31.1557 59.1066 26.8838 59.1066 21.1222C59.1066 15.3606 62.7731 11.1214 68.1418 11.0887C69.1545 11.0847 70.1629 11.2224 71.1373 11.4979L74.5417 1.0384C72.4422 0.414273 70.2664 0.0836127 68.0763 0.0561523H67.8637C65.1236 0.0624482 62.412 0.611766 59.8854 1.67219C57.3588 2.73262 55.0673 4.28302 53.1435 6.23419C51.2197 8.18537 49.7016 10.4983 48.677 13.0396C47.6524 15.5809 47.1416 18.3008 47.1741 21.0407C47.1481 23.8037 47.6694 26.5444 48.7078 29.1049C49.7462 31.6654 51.2811 33.9947 53.2242 35.9591C55.1673 37.9235 57.4802 39.4836 60.0293 40.5499C62.5783 41.6162 65.3132 42.1673 68.0763 42.1715C72.9033 42.2726 77.6178 40.709 81.4274 37.743C85.237 34.777 87.9093 30.59 88.9949 25.8856H77.0788C76.3333 27.5159 75.1199 28.8873 73.5926 29.8258C72.0653 30.7644 70.2931 31.2272 68.5019 31.1557V31.1557Z" fill="white"/>
<path d="M113.776 0.0574705C111.035 0.0616058 108.322 0.609254 105.793 1.66872C103.265 2.72818 100.971 4.27852 99.0456 6.22992C97.1201 8.18131 95.6007 10.4954 94.5751 13.0377C93.5495 15.5801 93.0381 18.3008 93.0705 21.042C93.0468 23.8058 93.57 26.5464 94.6103 29.107C95.6505 31.6677 97.1871 33.9971 99.1315 35.9612C101.076 37.9254 103.39 39.4859 105.94 40.552C108.49 41.6181 111.225 42.1686 113.989 42.1728C114.447 42.1728 114.922 42.1728 115.38 42.1728C117.25 42.0668 119.099 41.7204 120.88 41.1418L117.835 30.6008C117.045 30.8932 116.219 31.0801 115.38 31.1571C115.036 31.1571 114.693 31.1571 114.333 31.1571C108.866 31.1571 104.937 26.8852 104.937 21.1235C104.937 15.3619 108.653 11.09 114.055 11.09C115.917 10.9977 117.762 11.4808 119.341 12.4735C120.919 13.4662 122.154 14.9198 122.877 16.6383H134.826C133.812 11.8479 131.151 7.56538 127.304 4.53555C123.458 1.50572 118.671 -0.0791945 113.776 0.0574705V0.0574705Z" fill="white"/>
<path d="M31.5252 5.60647H31.3781C30.0641 3.78279 28.3126 2.3186 26.2846 1.34898C24.2567 0.379361 22.0174 -0.0647832 19.7729 0.0574278C8.46249 0.0574278 0 9.45297 0 21.1235C0 32.794 7.48027 41.5021 18.4142 42.1896L19.9532 31.0587C17.6413 30.6682 15.5451 29.464 14.0441 27.6628C12.543 25.8616 11.7363 23.5822 11.769 21.2378C11.7232 19.9318 11.9383 18.6297 12.402 17.4079C12.8658 16.1861 13.5687 15.0697 14.4696 14.1231C15.3706 13.1764 16.4512 12.4184 17.6486 11.8948C18.8459 11.3712 20.1358 11.092 21.4425 11.0732C23.98 11.0672 26.4249 12.0261 28.2819 13.7554C30.1389 15.4847 31.2693 17.8551 31.4437 20.3866C31.4437 20.6321 31.4437 20.8612 31.4437 21.1067C31.4437 21.3522 31.4437 21.6305 31.4437 21.8924V40.8796H43.2451V1.41612H31.4437L31.5252 5.60647Z" fill="white"/>
<path d="M268.881 13.445L272.973 12.4956C277.131 11.5135 279.062 10.0402 279.062 6.66838C279.062 3.29653 276.673 0.121094 270.616 0.121094C263.169 0.121094 262.22 5.16244 262.22 7.01205H268.243C268.243 6.11179 268.914 5.37522 270.616 5.37522C272.401 5.37522 272.973 6.01333 272.973 6.7499C272.973 7.48647 272.286 7.89577 271.336 8.07582L267.752 8.87825C263.873 9.71302 261.729 11.153 261.729 14.5903V19.5831H278.784V14.5903H267.588C267.604 14.0338 267.932 13.6906 268.881 13.445Z" fill="white"/>
<path d="M269.798 35.9845L273.89 35.035C278.047 34.0365 279.979 32.58 279.979 29.1918C279.979 25.8036 277.589 22.6445 271.533 22.6445H271.451C264.02 22.6445 263.07 27.7019 263.07 29.5515H269.094C269.094 28.6512 269.765 27.9146 271.451 27.9146H271.533C273.301 27.9146 273.89 28.5368 273.89 29.2733C273.89 30.0099 273.202 30.4192 272.253 30.5993L268.668 31.3849C264.789 32.236 262.645 33.6765 262.645 37.1138V42.1058H279.701V37.1138H268.586C268.586 36.6064 268.832 36.1973 269.798 35.9845Z" fill="white"/>
<path d="M288.228 35.9845L292.303 35.035C296.477 34.0365 298.409 32.58 298.409 29.1918C298.409 25.8036 296.019 22.6445 289.963 22.6445H289.881C282.45 22.6445 281.5 27.7019 281.5 29.5515H287.508C287.508 28.6512 288.195 27.9146 289.881 27.9146H289.963C291.747 27.9146 292.303 28.5368 292.303 29.2733C292.303 30.0099 291.632 30.4192 290.667 30.5993L287.066 31.3849C283.203 32.236 281.059 33.6765 281.059 37.1138V42.1058H298.114V37.1138H286.902C286.918 36.6064 287.262 36.1973 288.228 35.9845Z" fill="white"/>
<path opacity="0.3" d="M300 10.251C300 15.8815 295.435 20.4459 289.805 20.4459C284.175 20.4459 279.61 15.8815 279.61 10.251C279.61 4.62055 284.175 0.0561523 289.805 0.0561523C295.435 0.0561523 300 4.62055 300 10.251ZM285.742 10.251C285.742 12.4949 287.561 14.3139 289.805 14.3139C292.049 14.3139 293.868 12.4949 293.868 10.251C293.868 8.00718 292.049 6.18819 289.805 6.18819C287.561 6.18819 285.742 8.00718 285.742 10.251Z" fill="white"/>
<path d="M300 10.251C300 12.2674 299.402 14.2385 298.282 15.915C297.161 17.5915 295.569 18.8982 293.706 19.6699C291.844 20.4415 289.794 20.6434 287.816 20.25C285.838 19.8566 284.022 18.8857 282.596 17.4599C281.17 16.0341 280.199 14.2176 279.806 12.2399C279.413 10.2623 279.615 8.21249 280.386 6.34962C281.158 4.48675 282.464 2.89453 284.141 1.7743C285.818 0.654071 287.789 0.0561523 289.805 0.0561523L289.805 6.18819C289.001 6.18819 288.216 6.42647 287.548 6.8729C286.88 7.31933 286.359 7.95386 286.051 8.69625C285.744 9.43863 285.663 10.2555 285.82 11.0436C285.977 11.8318 286.364 12.5557 286.932 13.1239C287.5 13.6921 288.224 14.079 289.012 14.2358C289.8 14.3926 290.617 14.3121 291.36 14.0046C292.102 13.6971 292.737 13.1763 293.183 12.5082C293.63 11.8401 293.868 11.0546 293.868 10.251H300Z" fill="white"/>
</svg>
