<svg xmlns="http://www.w3.org/2000/svg" width="820" height="100" viewBox="0 0 216.958 26.458"><defs><clipPath clipPathUnits="userSpaceOnUse" id="a"><path style="fill:#f0f;stroke:#000;stroke-width:.268633px;stroke-linecap:butt;stroke-linejoin:miter;stroke-opacity:1" d="m220.318 79.769.096-26.286-223.716-.094v26.567z"/></clipPath></defs><g style="display:inline;opacity:1;mix-blend-mode:normal;fill:#ffa207;fill-opacity:1;stroke-width:1.00007536;stroke-miterlimit:4;stroke-dasharray:none" transform="matrix(-.97008 0 0 -1 213.82 78.804)" clip-path="url(#a)"><path style="mix-blend-mode:normal;fill:#ffa207;fill-opacity:1;stroke:none;stroke-width:1.00008;stroke-linecap:butt;stroke-linejoin:miter;stroke-miterlimit:4;stroke-dasharray:none;stroke-opacity:1;opacity:.59354839" d="M-27.403 92.793s56.13-34.207 67.28-29.482c11.15 4.725 35.34 11.717 45.168 5.67 18.224-11.215 23.434-14.741 48.948-4.158 25.513 10.583 47.625-20.978 71.06-8.127 23.434 12.852 23.623 10.017 23.623 10.017l4.724 56.885-279.324-4.724z"/></g><g style="display:inline"><path style="fill:#ffa207;fill-opacity:1;stroke:none;stroke-width:.23665px;stroke-linecap:butt;stroke-linejoin:miter;stroke-opacity:1" d="M-24.417 101.109s33.434-35.56 53.105-30.54c21.923 5.593 13.23 17.084 41.767 9.222 17.944-4.944 31.4-14.34 45.168-13.002 26.458 2.57 47.247 15.305 57.263 8.048 9.148-6.628 12.716-13.035 22.679-11.375 13.607 2.268 32.128 11.34 32.128 11.34l6.803 24.795-4.913 13.153-247.008.605z" transform="translate(-268.504 201.107)"/></g><path style="fill:none;stroke:none;stroke-width:.264583px;stroke-linecap:butt;stroke-linejoin:miter;stroke-opacity:1" d="M.094.094 0 26.38l217.023.093V-.094Z"/></svg>