<?xml version="1.0" encoding="UTF-8" standalone="no"?>
<svg
   xmlns:dc="http://purl.org/dc/elements/1.1/"
   xmlns:cc="http://creativecommons.org/ns#"
   xmlns:rdf="http://www.w3.org/1999/02/22-rdf-syntax-ns#"
   xmlns:svg="http://www.w3.org/2000/svg"
   xmlns="http://www.w3.org/2000/svg"
   xmlns:sodipodi="http://sodipodi.sourceforge.net/DTD/sodipodi-0.dtd"
   xmlns:inkscape="http://www.inkscape.org/namespaces/inkscape"
   width="165"
   height="111"
   viewBox="0 0 165 111"
   fill="none"
   version="1.1"
   id="svg869"
   sodipodi:docname="logoV2-top.svg"
   inkscape:version="1.0.1 (3bc2e813f5, 2020-09-07)">
  <metadata
     id="metadata875">
    <rdf:RDF>
      <cc:Work
         rdf:about="">
        <dc:format>image/svg+xml</dc:format>
        <dc:type
           rdf:resource="http://purl.org/dc/dcmitype/StillImage" />
        <dc:title />
      </cc:Work>
    </rdf:RDF>
  </metadata>
  <defs
     id="defs873" />
  <sodipodi:namedview
     pagecolor="#ffffff"
     bordercolor="#666666"
     borderopacity="1"
     objecttolerance="10"
     gridtolerance="10"
     guidetolerance="10"
     inkscape:pageopacity="0"
     inkscape:pageshadow="2"
     inkscape:window-width="1267"
     inkscape:window-height="1040"
     id="namedview871"
     showgrid="false"
     inkscape:zoom="1.5146992"
     inkscape:cx="87.368101"
     inkscape:cy="21.899807"
     inkscape:window-x="121"
     inkscape:window-y="0"
     inkscape:window-maximized="0"
     inkscape:current-layer="g894"
     inkscape:document-rotation="0" />
  <g
     id="g894"
     transform="matrix(1.27336,0,0,1.27336,-20.746389,-7.1649705)">
    <path
       fill-rule="evenodd"
       clip-rule="evenodd"
       d="m 105.871,74.5288 c -0.896,1.015 -1.827,1.9937 -2.792,2.9345 l -1.433,-2.424 c 0.609,-0.5077 1.206,-1.0301 1.791,-1.5668 7.562,-6.903 12.872,-15.9219 15.238,-25.8839 -1.659,10.0026 -6.096,19.3377 -12.804,26.9402 z m -2.804,-11.049 c -1.618,1.834 -3.3848,3.5172 -5.2768,5.0353 l -1.2938,-2.189 c 1.6349,-1.1069 3.1913,-2.3354 4.6556,-3.6776 5.951,-5.4323 10.129,-12.5297 11.992,-20.3692 -1.306,7.8715 -4.798,15.2177 -10.077,21.2005 z m -3.5022,-8.486 c -1.9028,2.1563 -4.0756,4.0376 -6.4547,5.6032 l -1.1092,-1.8767 c 2.2008,-1.1921 4.2547,-2.6535 6.1121,-4.3565 4.51,-4.1173 7.678,-9.4966 9.089,-15.4383 -0.99,5.9659 -3.636,11.5338 -7.6372,16.0683 z"
       fill="#fcc400"
       id="path855" />
    <path
       d="m 103.079,77.4633 -1.722,1.0176 1.296,2.1917 1.823,-1.7775 z m 2.792,-2.9345 1.5,1.3233 v 0 z m -4.225,0.5105 -1.281,-1.5351 -1.3052,1.0895 0.865,1.4633 z m 1.791,-1.5668 -1.348,-1.4772 -0.004,0.003 z m 15.238,-25.8839 1.973,0.3273 -3.918,-0.7895 z m -20.8848,20.9265 -1.7217,1.0176 1.1739,1.9861 1.7995,-1.4438 z m 5.2768,-5.0353 1.5,1.3233 v 0 z m -6.5706,2.8463 -1.1213,-1.6562 -1.5575,1.0546 0.9571,1.6192 z m 4.6556,-3.6776 -1.3488,-1.4771 -0.0033,0.003 z m 11.992,-20.3692 1.973,0.3272 -3.919,-0.7895 z m -20.0339,18.3177 -1.7217,1.0176 1.0679,1.8069 1.7533,-1.1538 z m 6.4547,-5.6032 1.4992,1.3234 v -10e-5 z m -7.5639,3.7265 -0.9526,-1.7585 -1.8256,0.9889 1.0565,1.7873 z m 6.1121,-4.3565 -1.3483,-1.4772 -0.0033,0.003 z m 9.089,-15.4383 1.973,0.3272 -3.919,-0.7895 z m -2.726,39.9696 c 1,-0.9756 1.966,-1.9904 2.895,-3.043 l -3,-2.6466 c -0.862,0.9775 -1.759,1.9199 -2.688,2.8259 z m -4.5512,-2.8381 1.4322,2.4239 3.444,-2.0353 -1.433,-2.4239 z m 2.1602,-4.0587 c -0.562,0.5158 -1.136,1.0179 -1.72,1.5059 l 2.563,3.0703 c 0.632,-0.5276 1.252,-1.0703 1.861,-1.6279 z M 116.73,47.1264 c -2.274,9.5713 -7.376,18.2366 -14.641,24.8689 l 2.696,2.9543 c 7.859,-7.1737 13.377,-16.5462 15.836,-26.8987 z m -9.359,28.7257 c 6.956,-7.8836 11.557,-17.5639 13.277,-27.9362 l -3.946,-0.6545 c -1.597,9.6327 -5.87,18.6226 -12.331,25.9441 z M 99.0419,70.075 c 1.9811,-1.5894 3.8301,-3.3517 5.5251,-5.2719 l -3,-2.6466 c -1.542,1.7478 -3.2254,3.3519 -5.0284,4.7986 z m -4.2672,-2.7313 1.2938,2.189 3.4435,-2.0353 -1.2939,-2.189 z m 5.0252,-6.1693 c -1.3914,1.2757 -2.8707,2.4434 -4.4248,3.4955 l 2.2426,3.3123 c 1.7158,-1.1617 3.3493,-2.4509 4.8853,-3.8595 z M 111.198,41.817 c -1.77,7.449 -5.74,14.1927 -11.3948,19.3544 l 2.6968,2.9543 c 6.248,-5.703 10.634,-13.154 12.589,-21.3842 z m -6.631,22.9861 c 5.527,-6.2639 9.183,-13.9553 10.55,-22.1966 L 111.17,41.952 c -1.244,7.5017 -4.571,14.5028 -9.603,20.2045 z M 94.2096,62.2677 c 2.5265,-1.6627 4.834,-3.6606 6.8544,-5.9505 l -2.9988,-2.6467 c -1.7849,2.0226 -3.8229,3.7872 -6.0545,5.2558 z m -3.9304,-2.5297 1.1092,1.8766 3.4435,-2.0353 -1.1093,-1.8766 z m 6.4822,-6.8484 c -1.7361,1.5918 -3.6559,2.9578 -5.7131,4.0722 l 1.9052,3.5171 c 2.3445,-1.27 4.5325,-2.8268 6.5111,-4.641 z m 8.4946,-14.4264 c -1.319,5.5512 -4.277,10.5768 -8.4913,14.4234 l 2.6967,2.9543 c 4.8066,-4.3879 8.1826,-10.1208 9.6866,-16.4532 z m -4.192,17.8539 c 4.25,-4.8156 7.06,-10.7286 8.111,-17.0644 l -3.946,-0.6545 c -0.928,5.5962 -3.411,10.8189 -7.1638,15.0723 z"
       fill="#fcc400"
       id="path857"
       style="fill:#ffd58e;fill-opacity:1" />
    <path
       d="m 122.647,24.6299 -3.983,0.6126 c -1.228,0.1891 -2.071,1.3384 -1.882,2.5673 l 0.612,3.9824 c 0.189,1.2289 1.339,2.0718 2.567,1.8828 l 3.983,-0.6126 c 1.229,-0.1891 2.072,-1.3385 1.883,-2.5674 l -0.613,-3.9824 c -0.189,-1.2288 -1.338,-2.0717 -2.567,-1.8827 z"
       fill="#414042"
       id="path859"
       style="fill:#ffd58e;fill-opacity:1" />
    <path
       d="m 108.385,35.6988 3.497,-0.538 c 1.46,-0.1403 2.924,0.218 4.154,1.0167 l 0.153,0.1256 c 1.136,0.929 1.919,2.2196 2.219,3.6562 l 0.535,3.4825 c 0.094,0.6067 0.424,1.1515 0.919,1.5145 0.495,0.3631 1.114,0.5146 1.721,0.4213 l 4.094,-0.6299 c 0.607,-0.0933 1.152,-0.4239 1.515,-0.9189 0.363,-0.495 0.514,-1.114 0.421,-1.7207 l -0.63,-4.0944 c -0.093,-0.6068 -0.424,-1.1515 -0.919,-1.5146 -0.495,-0.363 -1.114,-0.5145 -1.72,-0.4212 l -3.483,0.5357 c -1.46,0.1464 -2.926,-0.2125 -4.154,-1.0167 l -0.166,-0.1087 c -1.133,-0.9314 -1.915,-2.2209 -2.218,-3.6563 l -0.538,-3.497 c -0.093,-0.6067 -0.423,-1.1515 -0.918,-1.5146 -0.496,-0.363 -1.114,-0.5145 -1.721,-0.4212 l -4.095,0.6299 c -0.606,0.0933 -1.151,0.4239 -1.514,0.9189 -0.363,0.495 -0.515,1.114 -0.421,1.7206 l 0.629,4.0946 c 0.094,0.6067 0.424,1.1514 0.919,1.5144 0.495,0.3631 1.114,0.5146 1.721,0.4213 z"
       fill="#414042"
       id="path861"
       style="fill:#ffd58e;fill-opacity:1" />
    <path
       fill-rule="evenodd"
       clip-rule="evenodd"
       d="m 77.7636,89.2877 c 9.7166,0 18.6437,-3.38 25.6694,-9.0284 L 89.4816,57.9364 c -2.558,0.8737 -5.327,1.3513 -8.218,1.3513 -12.9787,0 -23.5,-9.6259 -23.5,-21.5 0,-11.8742 10.5213,-21.5 23.5,-21.5 8.4757,0 15.9033,4.1051 20.0374,10.2606 l 0.791,-0.3644 c 0.026,-0.4428 0.178,-0.8728 0.445,-1.236 0.363,-0.495 0.908,-0.8256 1.514,-0.9189 l 4.089,-0.629 1.623,-0.7471 C 102.249,13.2852 90.7068,7.28766 77.7636,7.28766 c -22.6437,0 -41,18.35634 -41,41.00004 0,22.6436 18.3563,41 41,41 z"
       fill="#414042"
       id="path863"
       style="fill:#ffd58e;fill-opacity:1" />
  </g>
</svg>
